#N canvas 720 87 589 533 10;
#X declare -lib cyclone -lib unauthorized;
#X obj 19 -4 dumpOSC 10111;
#X text 130 -4 receives OSC messages in port 10111;
#X obj 19 27 OSCroute /mouse;
#X text 130 26 filters the messages that start with "/mouse";
#X obj 106 56 print rejected;
#X obj 19 87 OSCroute /position /posNorm;
#X obj 19 119 unpack f f;
#X obj 98 119 unpack f f;
#X text 200 86 filter message to get required values;
#X floatatom 19 151 5 0 0 3 x - -;
#X floatatom 53 151 5 0 0 3 y - -;
#X floatatom 98 151 5 0 0 3 xNorm - -;
#X floatatom 133 151 5 0 0 3 yNorm - -;
#X obj 176 167 expr 1-$f1;
#X obj 98 219 pack f f;
#X msg 176 193 bang;
#X msg 98 245 values \$1 \$2;
#X obj 98 272 grid grid1 150 0 1 150 0 1 1 0.01 0.01 10 10 246 324
;
#X floatatom 241 433 5 0 0 1 Y - -;
#X floatatom 98 433 5 0 0 1 X - -;
#X obj 312 151 loadbang;
#X msg 321 203 disconnect;
#X obj 312 416 sendOSC;
#X obj 339 238 hsl 100 15 0 359 0 0 empty empty hue -2 -8 0 10 -262144
-1 -1 0 1;
#X floatatom 336 254 5 0 0 0 - - -;
#X msg 393 347 [;
#X msg 336 347 ];
#X obj 336 321 t b list b;
#X obj 449 237 hsl 100 15 0 99 0 0 empty empty sat -2 -8 0 10 -262144
-1 -1 0 1;
#X floatatom 446 253 5 0 0 0 - - -;
#X obj 336 295 pack f f;
#X obj 446 278 t b f;
#X floatatom 312 441 5 0 0 0 - - -;
#X floatatom 351 441 5 0 0 0 - - -;
#X msg 336 373 send /hue \$1 \, send /sat \$2;
#X obj 405 -2 import cyclone unauthorized;
#X obj 405 -25 loadbang;
#X msg 312 177 connect localhost 10112;
#X connect 0 0 2 0;
#X connect 2 0 5 0;
#X connect 2 1 4 0;
#X connect 5 0 6 0;
#X connect 5 1 7 0;
#X connect 6 0 9 0;
#X connect 6 1 10 0;
#X connect 7 0 11 0;
#X connect 7 1 12 0;
#X connect 11 0 14 0;
#X connect 12 0 13 0;
#X connect 13 0 15 0;
#X connect 13 0 14 1;
#X connect 14 0 16 0;
#X connect 15 0 14 0;
#X connect 16 0 17 0;
#X connect 17 0 19 0;
#X connect 17 1 18 0;
#X connect 20 0 37 0;
#X connect 21 0 22 0;
#X connect 22 0 32 0;
#X connect 22 1 33 0;
#X connect 23 0 24 0;
#X connect 24 0 30 0;
#X connect 25 0 22 0;
#X connect 26 0 22 0;
#X connect 27 0 26 0;
#X connect 27 1 34 0;
#X connect 27 2 25 0;
#X connect 28 0 29 0;
#X connect 29 0 31 0;
#X connect 30 0 27 0;
#X connect 31 0 30 0;
#X connect 31 1 30 1;
#X connect 34 0 22 0;
#X connect 36 0 35 0;
#X connect 37 0 22 0;
